<svg xmlns="http://www.w3.org/2000/svg" viewBox="0 0 120 120" role="img" aria-label="Saathi">
  <defs>
    <linearGradient id="warmBg" x1="0%" y1="0%" x2="100%" y2="100%">
      <stop offset="0%" stop-color="#f4fafa"/>
      <stop offset="55%" stop-color="#7ee8dc"/>
      <stop offset="100%" stop-color="#2ec4b6"/>
    </linearGradient>
    <linearGradient id="glow" x1="50%" y1="0%" x2="50%" y2="100%">
      <stop offset="0%" stop-color="#fcfeff" stop-opacity="0.9"/>
      <stop offset="100%" stop-color="#fcfeff" stop-opacity="0"/>
    </linearGradient>
    <linearGradient id="heart" x1="0%" y1="0%" x2="100%" y2="100%">
      <stop offset="0%" stop-color="#ffb07a"/>
      <stop offset="100%" stop-color="#ff8f4d"/>
    </linearGradient>
  </defs>
  <circle cx="60" cy="60" r="56" fill="url(#warmBg)"/>
  <circle cx="60" cy="60" r="56" fill="url(#glow)"/>
  <circle cx="60" cy="60" r="56" fill="none" stroke="#fcfeff" stroke-width="2" opacity="0.45"/>
  <circle cx="44" cy="52" r="14" fill="#fcfeff" opacity="0.95"/>
  <circle cx="76" cy="52" r="14" fill="#fcfeff" opacity="0.95"/>
  <path d="M38 68 Q60 88 82 68 Q60 78 38 68Z" fill="#fcfeff" opacity="0.85"/>
  <path d="M60 74 C55 68 46 68 46 76 C46 84 60 92 60 92 C60 92 74 84 74 76 C74 68 65 68 60 74Z" fill="url(#heart)"/>
  <path d="M38 56 Q44 60 50 56" stroke="#0d9488" stroke-width="2" fill="none" stroke-linecap="round" opacity="0.5"/>
  <path d="M70 56 Q76 60 82 56" stroke="#0d9488" stroke-width="2" fill="none" stroke-linecap="round" opacity="0.5"/>
</svg>
